<svg xmlns="http://www.w3.org/2000/svg" width="20" height="20" viewBox="0 0 20 20">
  <defs>
    <linearGradient id="g" x1="0%" y1="100%" x2="100%" y2="0%">
      <stop offset="0%" stop-color="#1a73e8"/>
      <stop offset="50%" stop-color="#34a853"/>
      <stop offset="100%" stop-color="#fbbc04"/>
    </linearGradient>
  </defs>
  <!-- Simplified Brazil silhouette -->
  <path fill="url(#g)" d="M10.2,1.5 C9.5,1.8 8.8,2.2 8.2,2.8 C7.5,3.5 7.8,4.2 8.5,4.5 C9.2,4.8 9.8,5.2 10.5,5.5 C11.2,5.8 12,5.5 12.5,5 C13,4.8 13.5,5 14,5.2 C14.8,5.5 15.2,6 15.5,6.5 C16,7 16.2,7.8 16.5,8.5 C16.8,9 17,9.5 17.2,10 C17.5,10.5 17.2,11 17,11.5 C16.5,12 16,12.5 15.5,13 C15,13.5 14.5,14 14,14.5 C13.5,15 13,15.5 12.5,16 C12,16.5 11.5,17 11,17.2 C10.5,17.5 10,17.8 9.5,18 C9,18.2 8.5,18.5 8,18.2 C7.5,18 7,17.5 6.5,17 C6,16.5 5.5,16 5.2,15.5 C4.8,15 4.5,14.2 4.2,13.5 C4,13 3.8,12.2 3.5,11.5 C3.2,11 3,10.5 3,10 C3,9.5 3.2,9 3.5,8.5 C3.8,8 4,7.5 4.2,7 C4.5,6.5 5,6 5.5,5.5 C6,5 6.5,4.5 7,4 C7.5,3.5 8,3 8.5,2.5 C9,2 9.5,1.8 10.2,1.5 Z"/>
  <!-- Small chart bars inside -->
  <rect x="7" y="9" width="1.5" height="5" rx="0.5" fill="rgba(255,255,255,0.85)"/>
  <rect x="9.25" y="7" width="1.5" height="7" rx="0.5" fill="rgba(255,255,255,0.85)"/>
  <rect x="11.5" y="10" width="1.5" height="4" rx="0.5" fill="rgba(255,255,255,0.85)"/>
</svg>
